<svg width="114" height="108" viewBox="0 0 114 108" fill="none" xmlns="http://www.w3.org/2000/svg">
<g clip-path="url(#clip0_1851_13677)">
<path fill-rule="evenodd" clip-rule="evenodd" d="M77.8787 50.3974C77.6186 50.3974 77.5752 50.4397 77.2717 50.3974C75.4504 47.5999 72.5018 43.0222 70.377 39.8008C69.5531 40.9876 68.816 42.0473 68.1222 43.0645C68.1222 43.0645 68.1222 43.0645 68.0788 43.1069C66.0408 46.2011 64.1328 48.8714 63.2222 49.8463C63.2656 49.7192 64.3496 47.8118 65.6939 45.5229C65.2169 43.9123 64.7833 42.5135 64.4364 41.1148C62.9621 34.7145 61.4877 28.3142 60.0568 21.9139C59.97 21.5748 59.1895 18.6077 58.8426 17.76C58.6692 18.2686 58.2355 20.5999 58.1488 20.939C57.455 23.6093 56.8913 26.2796 56.1975 28.9923C55.4603 31.917 53.4657 39.2922 52.2949 42.8526C54.2028 46.2435 56.2842 50.0583 56.371 50.3126C56.1541 50.3126 55.9807 50.3126 55.8072 50.3126C54.4196 48.1085 49.6064 40.9876 49.1294 40.479C48.6091 40.9876 43.4056 48.4476 41.9746 50.0159C42.0613 49.6768 49.0861 37.7663 49.3029 37.7663C49.433 37.7663 50.7338 40.0127 52.2082 42.6407C53.5958 33.4853 57.4117 18.3958 58.7559 9.74902C58.9727 9.74902 58.9727 9.74902 59.2329 9.74902C59.97 13.3095 60.8373 18.6925 61.5745 22.2106C62.3116 25.771 66.1709 44.2937 66.3443 44.3361C66.4744 44.1242 66.5611 43.9547 66.6912 43.7427C66.908 43.4036 67.1248 43.0645 67.2983 42.6831C68.339 40.9452 69.5098 38.9955 70.5505 37.2153C72.6752 41.1148 75.9274 46.7945 77.8787 50.3974Z" fill="#195A9E"/>
<path d="M31.437 55.0596H47.6979V55.653C46.4838 55.6954 45.7032 55.9073 45.3997 56.2464C45.0528 56.5855 44.9227 57.3484 44.9227 58.5352V73.0737C44.9227 74.0062 44.9661 74.642 45.0962 74.9811C45.2262 75.3625 45.4864 75.6592 45.92 75.8712C46.3537 76.0831 46.9607 76.2103 47.6979 76.2103V83.1616H47.1776C47.0475 81.2966 46.4404 79.7707 45.313 78.5839C44.1855 77.3971 42.6679 76.8037 40.6732 76.8037H35.3396C33.3016 76.8037 31.6972 77.3547 30.483 78.4567C29.2689 79.5588 28.5317 81.1271 28.3582 83.1616H27.8379V76.2103C30.2228 75.7016 31.9573 73.9214 32.9547 70.8696C33.9954 67.8178 34.5157 63.7487 34.5157 58.6624C34.5157 57.4332 34.3423 56.6279 33.952 56.2464C33.5617 55.8649 32.7379 55.653 31.4803 55.653V55.0596H31.437ZM40.6732 56.4583H35.7299V58.3233C35.7299 60.9513 35.5564 63.4944 35.2529 65.9528C34.9493 68.4112 34.5157 70.361 33.952 71.8021C33.3883 73.2008 32.6511 74.43 31.7405 75.4049H38.7652C39.7192 75.4049 40.2829 75.3202 40.4564 75.193C40.6298 75.0658 40.7165 74.5996 40.7165 73.7943V56.4583H40.6732Z" fill="#195A9E"/>
<path d="M67.9474 54.9326V62.7317H67.3837C66.9501 60.6971 66.1696 59.1288 65.0421 58.0268C63.9147 56.9248 62.6138 56.3737 61.1829 56.3737C59.9687 56.3737 58.8847 56.7976 57.8873 57.6029C56.89 58.4083 56.1528 59.4679 55.6758 60.7819C55.0688 62.4774 54.7652 64.3424 54.7652 66.3769C54.7652 68.4114 54.982 70.234 55.4157 71.8871C55.8493 73.5402 56.5431 74.8117 57.4537 75.6595C58.3643 76.5072 59.5785 77.0582 61.0528 76.9311C64.1749 76.6767 65.866 71.8447 65.9094 69.7254H67.3403C67.2103 71.8023 66.2996 75.3204 63.6545 77.3973C62.5705 78.2026 61.6599 78.5417 60.0988 78.5417C58.0608 78.5417 56.1962 78.0755 54.6351 77.1006C53.0307 76.1257 51.8166 74.727 50.9493 72.9468C50.0821 71.1241 49.6484 69.2168 49.6484 67.1822C49.6484 65.0205 50.1254 62.986 51.0794 61.0362C52.0334 59.0865 53.3343 57.6029 54.982 56.5433C56.6298 55.4836 58.3643 54.9326 60.1855 54.9326C61.5298 54.9326 62.9607 55.2717 64.4784 55.9499C65.3457 56.3314 65.9094 56.5433 66.1262 56.5433C66.4297 56.5433 66.6899 56.4161 66.9067 56.1618C67.1235 55.9075 67.2536 55.4836 67.3403 54.9326H67.9474Z" fill="#195A9E"/>
<path d="M22.635 104.439V103.888C23.2421 103.888 23.6323 103.719 23.8491 103.422C24.066 103.125 24.196 102.532 24.196 101.642V91.8505H22.8084C21.8545 91.8505 21.1607 92.02 20.8138 92.3591C20.4235 92.6982 20.1633 93.3764 19.9465 94.436H19.3828V90.918H33.0854V94.436H32.5216C32.3482 93.4611 32.088 92.8253 31.7411 92.4015C31.3942 92.02 30.7004 91.8081 29.6597 91.8081H28.2721V101.726C28.2721 102.617 28.4022 103.21 28.619 103.507C28.8358 103.803 29.2261 103.931 29.8332 103.931V104.482H22.635V104.439Z" fill="#195A9E"/>
<path d="M40.7184 90.6211C41.9326 90.6211 43.0166 90.9178 44.0573 91.5112C45.098 92.1046 45.8786 92.9523 46.3989 94.0968C46.9193 95.1988 47.1794 96.428 47.1794 97.742C47.1794 99.6494 46.7025 101.26 45.7051 102.532C44.491 104.1 42.8432 104.863 40.7618 104.863C38.6804 104.863 37.1193 104.142 35.9919 102.744C34.8645 101.345 34.3008 99.6917 34.3008 97.8267C34.3008 95.9194 34.8645 94.2239 35.9919 92.7828C37.1627 91.3417 38.7238 90.6211 40.7184 90.6211ZM40.8052 91.6384C40.2848 91.6384 39.8945 91.8079 39.5043 92.1894C39.1574 92.5709 38.8972 93.2914 38.8105 94.3935C38.6804 95.4955 38.637 96.979 38.637 98.9288C38.637 99.946 38.7238 100.921 38.8538 101.811C38.9406 102.489 39.2007 102.998 39.5476 103.379C39.8945 103.718 40.2848 103.93 40.7618 103.93C41.1954 103.93 41.5857 103.803 41.8459 103.591C42.2361 103.252 42.4963 102.828 42.6264 102.235C42.8432 101.345 42.9299 99.4798 42.9299 96.7247C42.9299 95.114 42.8432 93.9696 42.6697 93.3762C42.4963 92.7828 42.1928 92.3165 41.8459 92.0622C41.5423 91.7655 41.1954 91.6384 40.8052 91.6384Z" fill="#195A9E"/>
<path d="M56.3721 104.439V103.888C56.8491 103.888 57.2827 103.761 57.5862 103.549C57.8898 103.337 58.0632 102.828 58.0632 102.023V91.8929H54.204V97.7845C54.204 99.9038 54.1172 101.345 53.9004 102.15C53.6836 102.956 53.25 103.591 52.6429 104.015C52.0358 104.439 51.3854 104.651 50.6916 104.651C49.9111 104.651 49.2606 104.439 48.7836 103.973C48.3067 103.507 48.0898 102.956 48.0898 102.362C48.0898 101.769 48.2633 101.303 48.6102 100.921C48.9571 100.54 49.3907 100.37 49.9544 100.37C50.9951 100.37 51.5155 101.006 51.5155 102.235C51.5155 102.786 51.6456 103.083 51.8624 103.083C52.296 103.083 52.6429 102.744 52.8597 102.023C53.0765 101.345 53.2066 99.9038 53.2066 97.7421V93.8426C53.2066 92.9525 53.0765 92.3591 52.8597 92.02C52.5995 91.6809 52.2093 91.5114 51.6022 91.469V90.918H63.7003V91.469C62.703 91.469 62.226 92.1048 62.226 93.2916V101.938C62.226 102.617 62.3127 103.083 62.5296 103.379C62.7464 103.676 63.1366 103.846 63.7003 103.846V104.397H56.3721V104.439Z" fill="#195A9E"/>
<path d="M74.0639 104.44V103.889C74.9311 103.889 75.3648 103.253 75.3648 101.981V95.4115L71.4188 101.981C71.4188 103.253 71.8958 103.889 72.763 103.889V104.44H65.7816V103.889C66.3454 103.889 66.7356 103.719 66.9524 103.422C67.1692 103.126 67.2993 102.575 67.2993 101.812V93.5465C67.2993 92.1901 66.779 91.5543 65.7383 91.5543V91.0033H72.7197V91.5543C72.1993 91.5543 71.8524 91.7239 71.679 91.9782C71.5055 92.2325 71.3754 92.7835 71.3754 93.5465V100.074L75.3214 93.4193C75.3214 92.6988 75.1913 92.2325 75.0179 91.9358C74.8011 91.6391 74.4975 91.512 74.0205 91.512V90.9609H81.0019V91.512C80.4816 91.512 80.0913 91.6391 79.8311 91.8934C79.5709 92.1478 79.4409 92.614 79.4409 93.3346V101.897C79.4409 102.702 79.5709 103.211 79.7878 103.507C80.0046 103.762 80.4382 103.889 81.0019 103.889V104.44H74.0639Z" fill="#195A9E"/>
<path d="M98.389 103.931V108H97.8253C97.7385 106.898 97.3483 106.008 96.6111 105.414C95.9173 104.778 94.6598 104.482 92.8386 104.482H83.082V103.931C83.6891 103.931 84.0794 103.761 84.2962 103.464C84.513 103.168 84.6431 102.574 84.6431 101.642V93.6733C84.6431 92.6984 84.513 92.105 84.2962 91.893C84.036 91.6811 83.6457 91.554 83.1254 91.554V91.0029H90.1068V91.554C89.5864 91.554 89.2395 91.6811 89.066 91.893C88.8492 92.105 88.7625 92.656 88.7625 93.5461V101.43C88.7625 102.362 88.8492 102.956 89.066 103.21C89.2829 103.464 89.7165 103.592 90.4103 103.592H91.1908C91.7979 103.592 92.2315 103.464 92.405 103.253C92.6218 103.041 92.7085 102.447 92.7085 101.515V93.7156C92.7085 92.8255 92.6218 92.2321 92.4483 91.9778C92.2749 91.7235 91.928 91.5963 91.4076 91.5963V91.0453H98.389V91.5963C97.8253 91.5963 97.3916 91.7659 97.1748 92.0626C96.958 92.3593 96.8279 92.8679 96.8279 93.5885V101.727C96.8279 102.617 96.9147 103.21 97.1315 103.507C97.3483 103.761 97.7385 103.931 98.389 103.931Z" fill="#195A9E"/>
<path d="M108.017 102.489C106.326 103.93 104.851 104.651 103.507 104.651C102.727 104.651 102.076 104.397 101.556 103.888C101.036 103.379 100.775 102.744 100.775 101.981C100.775 100.963 101.209 100.031 102.12 99.2255C103.03 98.4201 104.982 97.3181 108.017 95.9617V94.6054C108.017 93.5881 107.974 92.9523 107.843 92.698C107.713 92.4437 107.497 92.1894 107.193 92.0198C106.889 91.8079 106.543 91.7231 106.152 91.7231C105.502 91.7231 104.982 91.8503 104.591 92.147C104.331 92.3165 104.201 92.5285 104.201 92.7404C104.201 92.9523 104.331 93.2066 104.591 93.5034C104.982 93.9272 105.155 94.3087 105.155 94.6902C105.155 95.1564 104.982 95.5379 104.635 95.877C104.288 96.2161 103.811 96.3856 103.247 96.3856C102.64 96.3856 102.12 96.2161 101.686 95.8346C101.252 95.4531 101.079 95.0293 101.079 94.563C101.079 93.8848 101.339 93.2066 101.903 92.5709C102.467 91.9351 103.247 91.4688 104.244 91.1297C105.242 90.7906 106.282 90.6211 107.366 90.6211C108.667 90.6211 109.708 90.8754 110.445 91.4264C111.182 91.9774 111.703 92.5709 111.92 93.2066C112.05 93.5881 112.136 94.5206 112.136 95.9617V101.175C112.136 101.769 112.18 102.192 112.223 102.32C112.266 102.489 112.353 102.574 112.44 102.659C112.527 102.744 112.657 102.786 112.787 102.786C113.047 102.786 113.307 102.616 113.567 102.235L114.001 102.574C113.524 103.295 113.004 103.803 112.483 104.1C111.963 104.439 111.356 104.566 110.705 104.566C109.925 104.566 109.318 104.397 108.884 104.015C108.407 103.761 108.147 103.21 108.017 102.489ZM108.017 101.43V96.9366C106.846 97.6148 105.936 98.3354 105.372 99.1407C104.982 99.6493 104.808 100.2 104.808 100.709C104.808 101.133 104.982 101.557 105.285 101.853C105.545 102.108 105.892 102.235 106.326 102.235C106.803 102.235 107.366 101.981 108.017 101.43Z" fill="#195A9E"/>
<path d="M92.4492 75.5326V76.8889L91.6687 76.8465L89.067 76.7618C88.3732 76.7618 82.3891 77.0585 82.3458 76.8889C82.3458 76.4227 82.3024 76.0836 82.3458 75.6173C82.3458 75.4054 84.7741 75.8717 84.8608 75.4902C85.0342 74.8544 80.4378 67.0129 79.3971 65.1903L77.5759 66.9705C77.5759 67.1401 77.5759 67.3944 77.5759 67.6487L77.6192 72.5231C77.6192 73.9643 77.706 74.7696 77.7927 74.9815C77.8361 75.1087 77.9662 75.2359 78.0962 75.3206C78.3131 75.4054 78.9635 75.4902 80.1343 75.575V76.9313C78.7033 76.8465 77.0989 76.8042 75.3644 76.8042C74.4971 76.8042 72.9795 76.8465 70.8113 76.9313V75.575C71.9821 75.4902 72.6759 75.4054 72.806 75.3206C72.8927 75.2782 72.9795 75.1935 73.0228 75.1087C73.1095 74.9392 73.1963 74.6425 73.2396 74.1338C73.3264 73.2861 73.4131 71.7178 73.4131 69.4713V63.4525C73.4131 61.5451 73.3697 59.9344 73.3264 58.6205C73.283 57.3489 73.1963 56.5859 73.1095 56.374C73.0662 56.2468 72.9361 56.1197 72.806 56.0349C72.5892 55.9501 71.8954 55.8654 70.7246 55.7806V54.4242C72.4591 54.509 74.0202 54.5514 75.4078 54.5514C77.0555 54.5514 78.6166 54.509 80.0909 54.4242V55.7806C78.8768 55.8654 78.1396 55.9925 77.9662 56.1197C77.7927 56.2468 77.6626 56.5859 77.6192 57.1369C77.5759 57.8151 77.5325 60.4855 77.5325 65.1903H77.7493C77.9228 65.0208 78.0962 64.8512 78.3131 64.6817L79.0502 63.9611C79.8741 63.1558 80.8281 62.0961 81.9989 60.8245C83.8201 58.79 85.2511 57.0946 86.2484 55.7382L82.4759 55.6534L82.4325 54.3818C82.4325 54.3818 88.3732 54.509 89.1103 54.509C89.8908 54.509 90.7581 54.4666 91.7554 54.3818V55.7382L90.9315 55.823C90.2811 55.9077 89.8475 55.9925 89.6307 56.0773C89.2404 56.2468 88.7201 56.6707 88.0696 57.2641C87.1156 58.1542 85.9015 59.3834 84.3838 60.9093L82.259 63.1134C83.2564 64.6817 86.8988 70.3614 88.7634 72.6927C90.0209 74.261 90.7581 75.1087 91.0183 75.2783C91.2351 75.4054 91.7121 75.4902 92.4492 75.5326Z" fill="#195A9E"/>
<path d="M111.225 83.2461V85.4926H17.6052V90.4094H17.0848C16.6946 88.5444 15.9574 87.1032 14.83 86.086C14.6132 85.874 14.353 85.6621 14.0928 85.4926C13.1822 84.8992 12.1849 84.5601 11.1008 84.5601C10.0601 84.5601 9.06276 84.8568 8.19551 85.4926C8.10879 85.5773 8.02206 85.6197 7.89197 85.7045C6.938 86.4674 6.20084 87.4423 5.76721 88.6291C5.2035 90.1551 4.89996 91.8929 4.89996 93.7579C4.89996 95.6229 5.11677 97.3183 5.5504 98.8442C5.98402 100.37 6.63446 101.515 7.50171 102.32C8.41232 103.083 9.53975 103.591 10.9707 103.507C14.0061 103.252 15.6105 98.8442 15.6539 96.8521H17.0415C16.9114 98.7594 16.0441 101.981 13.4857 103.888C12.445 104.651 11.5344 104.948 10.0601 104.948C8.06542 104.948 6.33092 104.524 4.76987 103.634C3.25219 102.744 2.03804 101.472 1.21415 99.8191C0.433625 98.0813 0 96.3011 0 94.4361C0 92.4439 0.476987 90.5789 1.3876 88.7987C2.29821 87.0185 3.55572 85.6197 5.11677 84.6448C6.67782 83.67 8.36896 83.2461 10.1035 83.2461C10.4504 83.2461 10.7539 83.2461 11.1008 83.2461H111.225Z" fill="#195A9E"/>
<path fill-rule="evenodd" clip-rule="evenodd" d="M54.5078 3.60341C54.6379 3.60341 54.7246 3.60341 54.8547 3.60341C55.7653 3.60341 56.6326 3.56102 57.5432 3.56102C57.6733 3.56102 57.8467 3.56102 57.9768 3.56102C58.0635 3.56102 58.0635 3.51864 58.1069 3.47625C58.5405 2.37421 58.9308 1.22978 59.3644 0.127741C59.3644 0.127741 59.3644 0.0853549 59.4078 0.0429688C59.4078 0.0853549 59.4511 0.127741 59.4511 0.127741C59.8848 1.22978 60.275 2.33182 60.7087 3.47625C60.752 3.56102 60.752 3.56102 60.8387 3.56102C61.4025 3.56102 61.9662 3.60341 62.5732 3.60341C63.137 3.60341 63.7007 3.64579 64.2644 3.64579C64.2644 3.64579 64.3077 3.64579 64.3511 3.64579C64.221 3.77295 64.0909 3.90011 63.9175 3.98488C63.137 4.66306 62.3131 5.29885 61.5325 5.97703C61.4892 6.01942 61.4892 6.06181 61.4892 6.10419C61.7927 7.24862 62.0963 8.39305 62.4432 9.53747C62.4432 9.57986 62.4432 9.57986 62.4432 9.62224C61.4025 8.90168 60.4051 8.2235 59.4078 7.54532C58.4104 8.2235 57.4131 8.94407 56.3724 9.62224C56.3724 9.57986 56.3724 9.53747 56.3724 9.53747C56.6759 8.39305 56.9795 7.24862 57.3264 6.10419C57.3264 6.01942 57.3264 6.01942 57.283 5.93465C56.3724 5.1717 55.4618 4.40874 54.5512 3.64579C54.5512 3.64579 54.5078 3.64579 54.5078 3.60341Z" fill="#195A9E"/>
</g>
<defs>
<clipPath id="clip0_1851_13677">
<rect width="114" height="108" fill="white"/>
</clipPath>
</defs>
</svg>
